# xmcd
#
# Track frame offsets: 
#        150
#        11988
#        27884
#        45114
#        61298
#        74594
#        91243
#        108355
#        125720
#        141523
#        156285
#
# Disc length: 2341 seconds
#
# Revision: 0
# Processed by: cddbd v1.5.2PL0 Copyright (c) Steve Scherf et al.
# Submitted via: ExactAudioCopyFreeDBPlugin 1.0
#
DISCID=9809230b
DTITLE=Bobby Womack - Icon
DYEAR=2013
DGENRE=R&B
TTITLE0=Lookin' For A Love
TTITLE1=Woman's Gotta Have It
TTITLE2=Across 10th Street
TTITLE3=That's The Way I Fell About Cha
TTITLE4=Nobody Wants You When You're Down And Out
TTITLE5=You're Welcome, Stop On By
TTITLE6=Check It Out
TTITLE7=Harry Hippie
TTITLE8=Daylight
TTITLE9=How I Miss You Baby
TTITLE10=I Wish He Didn't Trust Me So Much
EXTD=
EXTT0=
EXTT1=
EXTT2=
EXTT3=
EXTT4=
EXTT5=
EXTT6=
EXTT7=
EXTT8=
EXTT9=
EXTT10=
PLAYORDER=
